# xmcd
#
# Track frame offsets: 
#        150
#        25235
#        51775
#        76860
#        92725
#        113885
#        137195
#        163710
#        194595
#        221125
#        256135
#        287075
#
# Disc length: 4271 seconds
#
# Revision: 0
# Processed by: cddbd v1.5.1PL2 Copyright (c) Steve Scherf et al.
# Submitted via: ExactAudioCopy v0.95a5
#
DISCID=ac10ad0c
DTITLE=Jimi's Soliquity Of Jazzy Soul - Live On Stage 2004-12-30
DYEAR=2004
DGENRE=Soul
TTITLE0=Mornin
TTITLE1=Just The Two Or Us
TTITLE2=What's Going On
TTITLE3=Daddy's Home
TTITLE4=Rainy Night In Georgia
TTITLE5=What You Won't Do For Love
TTITLE6=Let's Get It On
TTITLE7=Ain't No Sunshine
TTITLE8=Stand By Me (Medley)
TTITLE9=On Broadway
TTITLE10=Wonderful World
TTITLE11=Another Star
EXTD=
EXTT0=
EXTT1=
EXTT2=
EXTT3=
EXTT4=
EXTT5=
EXTT6=
EXTT7=
EXTT8=
EXTT9=
EXTT10=
EXTT11=
PLAYORDER=
